<?xml version="1.0" standalone="no"?>
<!DOCTYPE svg PUBLIC "-//W3C//DTD SVG 20010904//EN"
 "http://www.w3.org/TR/2001/REC-SVG-20010904/DTD/svg10.dtd">
<svg version="1.0" xmlns="http://www.w3.org/2000/svg"
 width="483.000000pt" height="63.000000pt" viewBox="0 0 483.000000 63.000000"
 preserveAspectRatio="xMidYMid meet">

<g transform="translate(0.000000,63.000000) scale(0.100000,-0.100000)"
fill="#000000" stroke="none">
<path d="M57 583 c-4 -3 -7 -113 -7 -244 l0 -237 28 -18 c19 -13 45 -19 86
-19 49 0 61 3 73 22 l15 22 36 -24 c43 -30 110 -33 151 -9 25 15 30 15 59 0
45 -23 117 -21 142 4 11 11 20 27 20 35 0 24 21 17 58 -17 l33 -33 154 -3
c120 -3 159 0 182 11 24 13 32 13 53 1 33 -18 111 -18 136 0 14 11 20 30 24
83 4 60 7 68 25 68 18 0 21 -8 25 -67 6 -81 22 -97 96 -98 87 0 89 3 92 192 2
90 7 166 10 170 10 10 85 -11 94 -26 4 -6 8 -74 8 -151 0 -77 4 -145 8 -151
23 -35 111 -46 150 -18 19 13 22 25 23 87 1 40 4 110 7 156 7 83 8 85 37 94
17 5 37 16 46 24 15 12 17 10 23 -24 3 -21 6 -102 6 -180 0 -135 1 -143 22
-157 28 -20 108 -21 134 -2 14 11 20 30 24 83 4 60 7 68 25 68 18 0 20 -8 23
-62 3 -53 7 -65 29 -83 31 -24 95 -27 135 -6 24 13 32 13 55 0 21 -10 71 -14
204 -14 163 0 178 2 203 21 l26 20 26 -20 c36 -29 112 -29 148 0 22 17 26 29
27 72 l2 52 6 -52 c9 -73 27 -89 101 -86 105 5 114 4 173 -3 50 -6 63 -4 86
13 26 20 27 20 50 2 21 -17 42 -19 188 -19 125 0 171 3 193 15 25 13 32 13 57
0 41 -22 362 -21 404 0 27 14 32 14 51 0 51 -35 178 -3 178 44 0 11 4 22 9 25
9 6 50 -30 67 -60 16 -27 117 -27 157 0 l27 19 -2 241 -3 241 -76 3 -77 3 -22
-36 c-17 -27 -28 -35 -50 -35 -25 0 -29 4 -32 33 l-3 32 -76 3 c-74 3 -77 2
-95 -25 l-18 -28 -6 25 -6 25 -211 3 c-210 2 -212 2 -224 -20 l-12 -22 -8 22
c-8 22 -11 22 -204 22 l-195 0 -12 -25 c-14 -31 -26 -32 -30 -2 -3 20 -9 22
-80 25 -71 3 -78 1 -89 -20 l-12 -22 -8 22 c-8 22 -10 22 -191 20 l-182 -3 -9
-34 c-9 -36 -23 -32 -29 9 l-3 25 -213 3 c-207 2 -214 2 -219 -18 -7 -26 -19
-26 -26 0 -5 18 -14 20 -80 20 -42 0 -78 -4 -82 -9 -3 -6 -8 -46 -12 -91 -6
-75 -8 -81 -27 -78 -19 3 -22 12 -27 79 -4 42 -10 82 -13 88 -4 6 -38 11 -82
11 -58 0 -76 -3 -79 -15 -16 -50 -17 -51 -31 -18 l-14 33 -180 0 c-177 0 -181
0 -189 -22 l-8 -22 -12 22 c-11 21 -18 23 -89 20 l-77 -3 -5 -85 c-5 -77 -7
-85 -25 -85 -17 0 -21 9 -26 60 -4 33 -11 72 -17 88 -11 26 -14 27 -87 27 -69
0 -76 -2 -84 -22 l-8 -22 -12 22 c-11 21 -16 22 -192 22 -172 0 -181 -1 -186
-20 -3 -11 -13 -20 -22 -20 -9 0 -22 -5 -28 -11 -8 -8 -16 -3 -27 20 -16 31
-18 31 -92 31 -67 0 -76 -2 -81 -20 -3 -11 -9 -20 -14 -20 -4 0 -13 9 -19 20
-10 19 -21 20 -189 20 -98 0 -181 -3 -184 -7z m363 -138 l0 -135 -25 0 c-16 0
-25 -6 -25 -15 0 -9 9 -15 25 -15 25 0 25 -1 25 -90 l0 -90 -75 0 -75 0 0 90
0 90 -30 0 -30 0 0 -90 0 -90 -75 0 -75 0 0 240 0 240 180 0 180 0 0 -135z
m200 -105 l0 -240 -75 0 -75 0 0 240 0 240 75 0 75 0 0 -240z m460 180 l0 -60
-130 0 -130 0 0 -120 0 -120 70 0 70 0 0 30 c0 28 -2 30 -40 30 l-40 0 0 60 0
60 100 0 100 0 0 -150 0 -150 -180 0 -180 0 0 25 c0 20 -5 25 -25 25 l-25 0 0
195 0 195 25 0 c18 0 25 5 25 20 0 19 7 20 180 20 l180 0 0 -60z m190 -30 l0
-90 45 0 45 0 0 90 0 90 75 0 75 0 0 -240 0 -240 -75 0 -75 0 0 90 0 90 -45 0
-45 0 0 -90 0 -90 -75 0 -75 0 0 240 0 240 75 0 75 0 0 -90z m640 30 l0 -60
-50 0 -50 0 0 -180 0 -180 -75 0 -75 0 0 180 0 180 -55 0 -55 0 0 60 0 60 180
0 180 0 0 -60z m200 -30 l0 -90 45 0 45 0 0 90 0 90 75 0 75 0 0 -240 0 -240
-75 0 -75 0 0 90 0 90 -45 0 -45 0 0 -90 0 -90 -75 0 -75 0 0 240 0 240 75 0
75 0 0 -90z m700 -150 l0 -240 -210 0 -210 0 0 240 0 240 210 0 210 0 0 -240z
m410 105 l0 -135 -25 0 c-16 0 -25 -6 -25 -15 0 -9 9 -15 25 -15 25 0 25 -1
25 -90 l0 -90 -75 0 -75 0 0 90 0 90 -30 0 -30 0 0 -90 0 -90 -75 0 -75 0 0
240 0 240 180 0 180 0 0 -135z m190 -105 l0 -240 -75 0 -75 0 0 240 0 240 75
0 75 0 0 -240z m440 145 l0 -95 -30 0 c-27 0 -30 -3 -30 -30 0 -29 -2 -30 -45
-30 -43 0 -45 -1 -45 -30 0 -29 -2 -30 -45 -30 -41 0 -45 -2 -45 -25 l0 -25
120 0 120 0 0 -60 0 -60 -195 0 -195 0 0 100 0 100 30 0 c27 0 30 3 30 30 0
29 2 30 45 30 43 0 45 1 45 30 0 29 2 30 45 30 38 0 45 3 45 20 0 19 -7 20
-120 20 l-120 0 0 60 0 60 195 0 195 0 0 -95z m460 -145 l0 -240 -210 0 -210
0 0 240 0 240 210 0 210 0 0 -240z m200 205 c0 -32 2 -35 30 -35 28 0 30 -2
30 -40 0 -36 3 -40 25 -40 24 0 25 2 25 75 l0 75 75 0 75 0 0 -240 0 -240 -75
0 -75 0 0 35 c0 32 -2 35 -30 35 -28 0 -30 2 -30 40 0 36 -2 40 -25 40 -24 0
-25 -2 -25 -75 l0 -75 -75 0 -75 0 0 240 0 240 75 0 75 0 0 -35z m-965 -135
c39 0 46 -3 43 -17 -2 -12 -14 -19 -36 -21 -24 -2 -35 -10 -42 -28 -5 -13 -21
-29 -34 -34 -13 -5 -27 -19 -31 -31 -12 -36 -25 -1 -25 68 0 88 4 95 45 77 19
-8 55 -14 80 -14z m-2439 -17 c-7 -17 -8 -17 -17 0 -12 21 -2 44 13 29 6 -6 8
-19 4 -29z m-211 -132 c32 -25 31 -31 -5 -31 l-30 0 2 88 c2 74 2 78 5 25 3
-52 8 -66 28 -82z m2965 27 l0 -58 -83 0 c-46 0 -86 3 -90 6 -9 9 26 44 58 58
17 7 45 28 64 46 40 41 51 31 51 -52z"/>
<path d="M210 430 c0 -27 3 -30 30 -30 27 0 30 3 30 30 0 27 -3 30 -30 30 -27
0 -30 -3 -30 -30z"/>
<path d="M2540 340 l0 -120 60 0 60 0 0 120 0 120 -60 0 -60 0 0 -120z m98
-22 l3 -88 -41 0 -40 0 0 83 c0 46 3 87 7 91 4 4 21 6 38 4 l30 -3 3 -87z"/>
<path d="M3010 430 c0 -27 3 -30 30 -30 27 0 30 3 30 30 0 27 -3 30 -30 30
-27 0 -30 -3 -30 -30z"/>
<path d="M4040 340 l0 -120 60 0 60 0 0 120 0 120 -60 0 -60 0 0 -120z m78
-23 l3 -88 -33 3 -33 3 -3 74 c-4 92 0 103 35 99 28 -3 28 -3 31 -91z"/>
</g>
</svg>
